<?xml version="1.0" encoding="UTF-8"?>
<svg version="1.1" xmlns="http://www.w3.org/2000/svg" width="1536" height="1024">
<path d="M0 0 C506.88 0 1013.76 0 1536 0 C1536 337.92 1536 675.84 1536 1024 C1029.12 1024 522.24 1024 0 1024 C0 686.08 0 348.16 0 0 Z " fill="#121829" transform="translate(0,0)"/>
<path d="M0 0 C0.81218994 0.42200684 1.62437988 0.84401367 2.46118164 1.27880859 C3.15598633 1.63048096 3.85079102 1.98215332 4.56665039 2.34448242 C5.59725586 2.90945435 5.59725586 2.90945435 6.64868164 3.48583984 C20.22621245 10.83886443 33.519405 16.27878916 48.46118164 20.27880859 C49.23929199 20.49069824 50.01740234 20.70258789 50.8190918 20.92089844 C53.34412656 21.60838111 55.87100307 22.28861536 58.39868164 22.96630859 C59.19161621 23.1809375 59.98455078 23.39556641 60.80151367 23.61669922 C69.71818593 25.97439165 78.42813986 26.53477879 87.60571289 26.88427734 C88.47325195 26.92166016 89.34079102 26.95904297 90.23461914 26.99755859 C91.02271973 27.02785156 91.81082031 27.05814453 92.62280273 27.08935547 C94.46118164 27.27880859 94.46118164 27.27880859 95.46118164 28.27880859 C95.57797833 31.4042372 95.62923035 34.50783522 95.63818359 37.63427734 C95.64475479 38.61839096 95.65132599 39.60250458 95.65809631 40.61643982 C95.67792347 43.89973017 95.6895268 47.18297407 95.69946289 50.46630859 C95.70353842 51.59260681 95.70761395 52.71890503 95.71181297 53.8793335 C95.73273614 59.86681944 95.74699787 65.85428221 95.75634766 71.84179688 C95.76728843 77.96351233 95.80152379 84.08485168 95.84151936 90.20643616 C95.86799924 94.95986487 95.87606799 99.71320939 95.87962914 104.46670532 C95.88443275 106.71801223 95.89586292 108.96931704 95.91466713 111.22055054 C96.00842112 123.21259629 95.53001332 134.85258601 93.67285156 146.71630859 C93.51599286 147.72392242 93.35913416 148.73153625 93.19752216 149.76968384 C90.77604995 163.79553458 84.81306277 176.78843351 76.46118164 188.27880859 C75.7921582 189.24173828 75.12313477 190.20466797 74.43383789 191.19677734 C58.92943193 212.53190007 38.53933385 228.84296908 15.46118164 241.27880859 C14.77540039 241.64973633 14.08961914 242.02066406 13.38305664 242.40283203 C11.40220748 243.45468562 9.40702789 244.46811193 7.39868164 245.46630859 C6.25270508 246.03736328 5.10672852 246.60841797 3.92602539 247.19677734 C-3.34990521 249.46896762 -8.60250593 247.10465238 -15.04931641 243.73706055 C-15.93272705 243.2558374 -16.8161377 242.77461426 -17.72631836 242.27880859 C-19.11234253 241.53667114 -19.11234253 241.53667114 -20.52636719 240.77954102 C-35.67193225 232.5376959 -48.93032816 221.98818589 -61.53881836 210.27880859 C-62.18206055 209.70130859 -62.82530273 209.12380859 -63.48803711 208.52880859 C-75.22946167 197.50122326 -84.20972139 184.01020153 -90.53881836 169.27880859 C-90.82337891 168.63621094 -91.10793945 167.99361328 -91.40112305 167.33154297 C-99.53520654 148.70458536 -99.99185635 129.58122595 -99.90209961 109.52490234 C-99.90157966 107.20272319 -99.90210257 104.88054359 -99.90361023 102.55836487 C-99.90352131 97.73700227 -99.89324451 92.91580971 -99.875 88.09448242 C-99.85209755 81.90609765 -99.85181619 75.71795576 -99.85851765 69.52954006 C-99.86184825 64.75561853 -99.85524835 59.98175284 -99.84538841 55.20784187 C-99.8415366 52.92359776 -99.84038812 50.63934745 -99.84197426 48.35510063 C-99.84234315 45.18428375 -99.82978165 42.0137866 -99.81347656 38.84301758 C-99.81719269 37.42583687 -99.81719269 37.42583687 -99.82098389 35.98002625 C-99.81389908 35.12124878 -99.80681427 34.26247131 -99.79951477 33.37767029 C-99.7974619 32.62988532 -99.79540903 31.88210035 -99.79329395 31.11165524 C-99.53881836 29.27880859 -99.53881836 29.27880859 -97.53881836 27.27880859 C-95.50195312 26.93164062 -95.50195312 26.93164062 -92.98022461 26.78662109 C-92.04645996 26.72369873 -91.11269531 26.66077637 -90.15063477 26.59594727 C-89.14436035 26.5325415 -88.13808594 26.46913574 -87.10131836 26.40380859 C-71.03021321 25.18865183 -55.80390136 21.77527966 -40.4675293 16.88916016 C-38.69818021 16.32923956 -36.91962391 15.79863369 -35.14038086 15.27099609 C-26.11434944 12.37666298 -18.21110986 7.96837395 -10.08886719 3.11645508 C-8.73184692 2.33250366 -8.73184692 2.33250366 -7.34741211 1.53271484 C-6.54102295 1.05133057 -5.73463379 0.56994629 -4.90380859 0.07397461 C-2.53881836 -0.72119141 -2.53881836 -0.72119141 0 0 Z " fill="#131A2B" transform="translate(494.538818359375,361.72119140625)"/>
<path d="M0 0 C0.81218994 0.42200684 1.62437988 0.84401367 2.46118164 1.27880859 C3.15598633 1.63048096 3.85079102 1.98215332 4.56665039 2.34448242 C5.59725586 2.90945435 5.59725586 2.90945435 6.64868164 3.48583984 C20.22621245 10.83886443 33.519405 16.27878916 48.46118164 20.27880859 C49.23929199 20.49069824 50.01740234 20.70258789 50.8190918 20.92089844 C53.34412656 21.60838111 55.87100307 22.28861536 58.39868164 22.96630859 C59.19161621 23.1809375 59.98455078 23.39556641 60.80151367 23.61669922 C69.71818593 25.97439165 78.42813986 26.53477879 87.60571289 26.88427734 C88.47325195 26.92166016 89.34079102 26.95904297 90.23461914 26.99755859 C91.02271973 27.02785156 91.81082031 27.05814453 92.62280273 27.08935547 C94.46118164 27.27880859 94.46118164 27.27880859 95.46118164 28.27880859 C95.57797833 31.4042372 95.62923035 34.50783522 95.63818359 37.63427734 C95.64475479 38.61839096 95.65132599 39.60250458 95.65809631 40.61643982 C95.67792347 43.89973017 95.6895268 47.18297407 95.69946289 50.46630859 C95.70353842 51.59260681 95.70761395 52.71890503 95.71181297 53.8793335 C95.73273614 59.86681944 95.74699787 65.85428221 95.75634766 71.84179688 C95.76728843 77.96351233 95.80152379 84.08485168 95.84151936 90.20643616 C95.86799924 94.95986487 95.87606799 99.71320939 95.87962914 104.46670532 C95.88443275 106.71801223 95.89586292 108.96931704 95.91466713 111.22055054 C96.00842112 123.21259629 95.53001332 134.85258601 93.67285156 146.71630859 C93.51599286 147.72392242 93.35913416 148.73153625 93.19752216 149.76968384 C90.77604995 163.79553458 84.81306277 176.78843351 76.46118164 188.27880859 C75.7921582 189.24173828 75.12313477 190.20466797 74.43383789 191.19677734 C58.92943193 212.53190007 38.53933385 228.84296908 15.46118164 241.27880859 C14.77540039 241.64973633 14.08961914 242.02066406 13.38305664 242.40283203 C11.40220748 243.45468562 9.40702789 244.46811193 7.39868164 245.46630859 C6.25270508 246.03736328 5.10672852 246.60841797 3.92602539 247.19677734 C-3.34990521 249.46896762 -8.60250593 247.10465238 -15.04931641 243.73706055 C-15.93272705 243.2558374 -16.8161377 242.77461426 -17.72631836 242.27880859 C-19.11234253 241.53667114 -19.11234253 241.53667114 -20.52636719 240.77954102 C-35.67193225 232.5376959 -48.93032816 221.98818589 -61.53881836 210.27880859 C-62.18206055 209.70130859 -62.82530273 209.12380859 -63.48803711 208.52880859 C-75.22946167 197.50122326 -84.20972139 184.01020153 -90.53881836 169.27880859 C-90.82337891 168.63621094 -91.10793945 167.99361328 -91.40112305 167.33154297 C-99.53520654 148.70458536 -99.99185635 129.58122595 -99.90209961 109.52490234 C-99.90157966 107.20272319 -99.90210257 104.88054359 -99.90361023 102.55836487 C-99.90352131 97.73700227 -99.89324451 92.91580971 -99.875 88.09448242 C-99.85209755 81.90609765 -99.85181619 75.71795576 -99.85851765 69.52954006 C-99.86184825 64.75561853 -99.85524835 59.98175284 -99.84538841 55.20784187 C-99.8415366 52.92359776 -99.84038812 50.63934745 -99.84197426 48.35510063 C-99.84234315 45.18428375 -99.82978165 42.0137866 -99.81347656 38.84301758 C-99.81719269 37.42583687 -99.81719269 37.42583687 -99.82098389 35.98002625 C-99.81389908 35.12124878 -99.80681427 34.26247131 -99.79951477 33.37767029 C-99.7974619 32.62988532 -99.79540903 31.88210035 -99.79329395 31.11165524 C-99.53881836 29.27880859 -99.53881836 29.27880859 -97.53881836 27.27880859 C-95.50195312 26.93164062 -95.50195312 26.93164062 -92.98022461 26.78662109 C-92.04645996 26.72369873 -91.11269531 26.66077637 -90.15063477 26.59594727 C-89.14436035 26.5325415 -88.13808594 26.46913574 -87.10131836 26.40380859 C-71.03021321 25.18865183 -55.80390136 21.77527966 -40.4675293 16.88916016 C-38.69818021 16.32923956 -36.91962391 15.79863369 -35.14038086 15.27099609 C-26.11434944 12.37666298 -18.21110986 7.96837395 -10.08886719 3.11645508 C-8.73184692 2.33250366 -8.73184692 2.33250366 -7.34741211 1.53271484 C-6.54102295 1.05133057 -5.73463379 0.56994629 -4.90380859 0.07397461 C-2.53881836 -0.72119141 -2.53881836 -0.72119141 0 0 Z M-8.37084961 15.50927734 C-9.32717285 15.98026855 -10.28349609 16.45125977 -11.26879883 16.93652344 C-12.28603027 17.44135254 -13.30326172 17.94618164 -14.35131836 18.46630859 C-22.96929614 22.65880234 -31.38628373 26.40383595 -40.53881836 29.27880859 C-41.71702148 29.69517578 -42.89522461 30.11154297 -44.10913086 30.54052734 C-53.60563339 33.75920138 -63.21451126 35.1816964 -73.13256836 36.43115234 C-74.53465657 36.61221114 -75.93667552 36.79380719 -77.33862305 36.97595215 C-80.7379129 37.41642692 -84.13807909 37.84964965 -87.53881836 38.27880859 C-87.63213713 50.71094226 -87.70289391 63.14299049 -87.74606705 75.57540512 C-87.76680418 81.35036478 -87.79486356 87.1250821 -87.84057617 92.89990234 C-87.8845347 98.48910093 -87.90805929 104.07806873 -87.91832733 109.66742706 C-87.92563008 111.78332393 -87.9398857 113.8992104 -87.96173859 116.01500702 C-88.13000788 133.00672794 -87.42382775 150.84018598 -79.35131836 166.21630859 C-78.96113525 166.99514404 -78.57095215 167.77397949 -78.16894531 168.57641602 C-64.09387799 195.96642355 -35.5856388 225.61908629 -5.53881836 235.27880859 C0.92097475 236.0646715 5.03587058 233.93766147 10.52368164 230.90380859 C11.7749585 230.22596313 11.7749585 230.22596313 13.05151367 229.53442383 C20.63211001 225.34292823 27.66060895 220.63375057 34.46118164 215.27880859 C35.00967773 214.84987305 35.55817383 214.4209375 36.12329102 213.97900391 C59.47473764 195.5141144 78.76789955 170.27177241 83.46118164 140.27880859 C83.71142796 136.7748812 83.71574394 133.29192181 83.68823242 129.78027344 C83.68852448 128.78394897 83.68881653 127.78762451 83.68911743 126.7611084 C83.68773631 123.50389561 83.67223294 120.24691838 83.65649414 116.98974609 C83.65275968 114.71717453 83.64991475 112.44460134 83.6479187 110.17202759 C83.64031639 104.21758507 83.62069734 98.26324155 83.59851074 92.30883789 C83.57797876 86.22201883 83.56890131 80.13518362 83.55883789 74.04833984 C83.53744806 62.12511948 83.50335351 50.2019723 83.46118164 38.27880859 C82.83168043 38.19523259 82.20217922 38.11165659 81.55360222 38.02554798 C78.6694576 37.64131125 75.78578083 37.25366532 72.90209961 36.8659668 C71.9119133 36.73456551 70.92172699 36.60316422 69.90153503 36.46778107 C62.6832799 35.49384786 55.65394645 34.2458923 48.58618164 32.46630859 C47.53720703 32.20624023 46.48823242 31.94617188 45.4074707 31.67822266 C31.61396826 28.15873557 19.11600671 22.84358541 6.3762207 16.52978516 C5.52125 16.10922852 4.6662793 15.68867188 3.78540039 15.25537109 C3.02316162 14.87461426 2.26092285 14.49385742 1.47558594 14.1015625 C-2.4623369 12.49317564 -4.77846523 13.71460178 -8.37084961 15.50927734 Z " fill="#4D8BEE" transform="translate(494.538818359375,361.72119140625)"/>
<path d="M0 0 C0 2.97 0 5.94 0 9 C2.7007721 7.99685608 4.98826901 7.00802647 7.375 5.375 C12.92712391 2.46674462 18.6873058 4.23550655 24.4375 5.875 C25.43233398 6.14908691 25.43233398 6.14908691 26.44726562 6.42871094 C29.05310877 7.14743169 31.64787135 7.88736834 34.22265625 8.7109375 C40.80484991 10.70729514 48.20759943 10.7277572 55 10 C57.24345276 8.54771292 57.24345276 8.54771292 59 7 C61.75 7.3125 61.75 7.3125 64 8 C64.375 10.6875 64.375 10.6875 64 14 C62.19095883 16.2225363 60.43971575 17.37352284 58 19 C57.01 19 56.02 19 55 19 C59.76014204 31.64495832 64.64292565 44.22911721 69.76123047 56.73413086 C70.37248779 58.24245483 70.37248779 58.24245483 70.99609375 59.78125 C71.54027954 61.1125293 71.54027954 61.1125293 72.09545898 62.47070312 C73.52231833 66.46051764 74.33636907 68.96986971 73 73.0625 C70.50422607 76.72816796 67.97798074 78.21396783 64 80 C63.27039063 80.35707031 62.54078125 80.71414063 61.7890625 81.08203125 C54.97706077 83.32407664 45.89894614 83.19376406 39.02734375 81.08984375 C34.42997316 78.70289508 30.97672628 75.89475078 29 71 C29.51241496 63.59468361 33.09990668 56.70500901 36.125 50.0625 C36.61202393 48.97525635 37.09904785 47.8880127 37.60083008 46.76782227 C38.58845287 44.56409075 39.57938759 42.36184034 40.57373047 40.16113281 C42.27557495 36.38922553 43.95453868 32.60749135 45.63037109 28.82397461 C47.08192351 25.54708665 48.54091307 22.27353888 50 19 C49.29915283 19.00523682 48.59830566 19.01047363 47.8762207 19.01586914 C44.68832299 19.03670852 41.50043964 19.04968232 38.3125 19.0625 C37.20970703 19.07087891 36.10691406 19.07925781 34.97070312 19.08789062 C33.3706543 19.09272461 33.3706543 19.09272461 31.73828125 19.09765625 C30.75899658 19.10289307 29.77971191 19.10812988 28.77075195 19.11352539 C26.06997284 19.00286698 23.63219509 18.59244912 21 18 C18.25254232 17.63575372 15.73488143 17.49066986 13 18 C10.08209475 20.2504197 10.08209475 20.2504197 8 23 C7.34 23.66 6.68 24.32 6 25 C5.28275738 31.17039606 6.06449418 37.0162445 7.5390625 43 C8.18522818 45.80370193 8.39835145 48.14514796 8 51 C6 53.375 6 53.375 4 55 C5.485 55.99 5.485 55.99 7 57 C7.326234 59.61981582 7.46496663 62.01536205 7.4765625 64.640625 C7.49214203 65.40042664 7.50772156 66.16022827 7.52377319 66.9430542 C7.57137715 69.37869137 7.59904979 71.81404403 7.625 74.25 C7.66162318 76.67146678 7.70245057 79.09277741 7.74765015 81.51409912 C7.77461882 83.02104602 7.79607953 84.52810481 7.81118774 86.03521729 C7.87176428 90.13076186 8.31069676 93.97069996 9 98 C9.07733849 100.08996873 9.10800958 102.18206395 9.09765625 104.2734375 C9.09282227 106.00400391 9.09282227 106.00400391 9.08789062 107.76953125 C9.07532227 109.55423828 9.07532227 109.55423828 9.0625 111.375 C9.05798828 112.58800781 9.05347656 113.80101562 9.04882812 115.05078125 C9.03708366 118.03387545 9.01914943 121.01694414 9 124 C3.39 124 -2.22 124 -8 124 C-7.78377032 115.46344691 -7.55956302 106.92721765 -7.32132149 98.39125443 C-7.2110139 94.4276143 -7.10419915 90.46394428 -7.00537109 86.5 C-6.90985978 82.67424987 -6.80516791 78.84885096 -6.6941185 75.02352142 C-6.65337247 73.56438702 -6.61592971 72.1051565 -6.58185196 70.64585114 C-6.53353742 68.60111285 -6.47346462 66.55703226 -6.41064453 64.51269531 C-6.37955597 63.34909485 -6.34846741 62.18549438 -6.31643677 60.9866333 C-6.01431091 58.13507103 -5.48130002 56.42180281 -4 54 C-4.495 53.62875 -4.99 53.2575 -5.5 52.875 C-7.69376328 50.1327959 -7.32179746 48.4754126 -7 45 C-6.70607515 43.57936321 -6.39198968 42.16281182 -6.0625 40.75 C-5.70292849 39.16788534 -5.34899354 37.58448161 -5 36 C-4.81308594 35.15695312 -4.62617188 34.31390625 -4.43359375 33.4453125 C-3.57540455 28.47569503 -3.57540455 28.47569503 -5.20703125 23.84765625 C-7.27568524 21.38641099 -9.11098599 19.44450701 -12 18 C-13.89911427 18.0938956 -15.79507786 18.25259506 -17.6875 18.4375 C-28.11109348 19.28707188 -38.54958992 19.08778453 -49 19 C-48.65243652 19.66829834 -48.30487305 20.33659668 -47.94677734 21.02514648 C-43.79388214 29.15420343 -40.11827815 37.43421194 -36.56591797 45.83959961 C-35.61196315 48.09329931 -34.64806472 50.34258055 -33.68359375 52.59179688 C-33.07231936 54.03099645 -32.46162015 55.47044049 -31.8515625 56.91015625 C-31.56415192 57.57886246 -31.27674133 58.24756866 -30.98062134 58.9365387 C-29.77840438 61.80115968 -29 63.85848181 -29 67 C-29.99 67 -30.98 67 -32 67 C-34.86548353 63.15950778 -36.33722115 58.72247994 -37.9375 54.25 C-39.80423774 49.15307957 -41.7093669 44.11940639 -43.99194336 39.19042969 C-45.05336054 36.88405163 -46.08803057 34.56703478 -47.1171875 32.24609375 C-47.47151855 31.44743896 -47.82584961 30.64878418 -48.19091797 29.82592773 C-48.45791504 29.22337158 -48.72491211 28.62081543 -49 28 C-49.02505615 28.72477539 -49.0501123 29.44955078 -49.07592773 30.19628906 C-49.19348617 33.54763745 -49.31547303 36.89881146 -49.4375 40.25 C-49.47681641 41.38953125 -49.51613281 42.5290625 -49.55664062 43.703125 C-49.83199768 51.1589468 -50.30978258 58.57105863 -51 66 C-51.99 66 -52.98 66 -54 66 C-54 54.78 -54 43.56 -54 32 C-56.49935089 38.5951931 -56.49935089 38.5951931 -58.99536133 45.19165039 C-60.8908186 50.18027835 -62.85578347 55.11318093 -65 60 C-65.31324219 60.73089844 -65.62648438 61.46179688 -65.94921875 62.21484375 C-66.19285156 62.78332031 -66.43648438 63.35179687 -66.6875 63.9375 C-67.120625 64.948125 -67.55375 65.95875 -68 67 C-68.99 67 -69.98 67 -71 67 C-65.59378876 50.71588054 -59.85472429 34.73915915 -53 19 C-53.94101562 18.87109375 -54.88203125 18.7421875 -55.8515625 18.609375 C-59.56995408 17.88968631 -60.79839676 17.04837372 -63 14 C-63.375 11.375 -63.375 11.375 -63 9 C-62.34 8.34 -61.68 7.68 -61 7 C-59.68 7 -58.36 7 -57 7 C-56.53319824 7.48726563 -56.06639648 7.97453125 -55.58544922 8.4765625 C-53.3175308 10.65577576 -51.7339776 10.39997164 -48.6328125 10.375 C-41.78503357 10.20189936 -35.47678886 8.72626281 -28.875 7 C-21.09800171 4.98070922 -14.06310827 3.50981385 -6 4 C-5.67 3.01 -5.34 2.02 -5 1 C-3 0 -3 0 0 0 Z " fill="#F2F4F8" transform="translate(492,428)"/>
<path d="M0 0 C1.21139648 -0.00483398 1.21139648 -0.00483398 2.44726562 -0.00976562 C12.7130006 0.081228 20.45911442 2.81666032 28.1875 9.625 C37.43687122 20.09139375 40.47141163 29.16781427 39.9765625 43.11328125 C39.54432454 49.12247631 37.5280984 54.10692834 34.5625 59.3125 C34.1396875 60.06015625 33.716875 60.8078125 33.28125 61.578125 C28.40715911 69.00261228 20.09526351 74.14384039 11.5625 76.3125 C-0.20381138 77.61788105 -11.6354296 77.65622367 -21.4375 70.3125 C-28.90553898 64.31543839 -34.42444879 56.57270523 -36.15234375 47.02734375 C-37.17274539 37.31256106 -37.8463735 27.84187744 -32.4375 19.3125 C-31.93992187 18.47074219 -31.44234375 17.62898437 -30.9296875 16.76171875 C-23.72294899 5.44881527 -13.293116 -0.2639618 0 0 Z " fill="#518DEE" transform="translate(753.4375,505.6875)"/>
<path d="M0 0 C45.90751689 0 45.90751689 0 57.9375 11.4375 C66.6168633 20.86436827 67.56819586 30.87649606 67.30078125 43.1328125 C66.85686541 52.75281591 63.17050339 58.82901784 56.5625 65.73046875 C40.56571909 79.8983494 20.94763024 75 0 75 C0 50.25 0 25.5 0 0 Z " fill="#528DED" transform="translate(808,506)"/>
<path d="M0 0 C0 3.96 0 7.92 0 12 C-11.40887711 18.27488241 -22.62861768 23.91238788 -35 28 C-36.12994385 28.38647705 -36.12994385 28.38647705 -37.28271484 28.78076172 C-52.83982801 34.05775998 -68.55003147 37.0482799 -85 37 C-84.96169836 49.43237484 -84.90198633 61.86445425 -84.81609726 74.29659653 C-84.77684901 80.07143928 -84.74455068 85.8461347 -84.72900391 91.62109375 C-84.71368654 97.21046468 -84.67897965 102.79942992 -84.63169098 108.38861847 C-84.61703086 110.50444226 -84.60896799 112.62032402 -84.60811615 114.73619843 C-84.59444639 131.68945417 -83.8638376 149.60170437 -75.8125 164.9375 C-75.42231689 165.71633545 -75.03213379 166.4951709 -74.63012695 167.29760742 C-58.45928596 198.76597958 -30.7587947 219.09391096 0 235 C0 238.3 0 241.6 0 245 C-4.01112804 246.13300194 -5.95681616 245.95308474 -9.625 244.0078125 C-10.49020264 243.55446533 -11.35540527 243.10111816 -12.24682617 242.6340332 C-13.60964722 241.88706177 -13.60964722 241.88706177 -15 241.125 C-15.93755127 240.62121826 -16.87510254 240.11743652 -17.84106445 239.59838867 C-33.03123575 231.30534795 -46.34323759 220.75420722 -59 209 C-59.64324219 208.4225 -60.28648437 207.845 -60.94921875 207.25 C-72.69064331 196.22241467 -81.67090303 182.73139294 -88 168 C-88.28456055 167.35740234 -88.56912109 166.71480469 -88.86230469 166.05273438 C-96.99638819 147.42577677 -97.45303799 128.30241736 -97.36328125 108.24609375 C-97.3627613 105.9239146 -97.36328421 103.601735 -97.36479187 101.27955627 C-97.36470295 96.45819368 -97.35442615 91.63700111 -97.33618164 86.81567383 C-97.31327919 80.62728906 -97.31299784 74.43914717 -97.31969929 68.25073147 C-97.32302989 63.47680993 -97.31642999 58.70294424 -97.30657005 53.92903328 C-97.30271824 51.64478916 -97.30156976 49.36053885 -97.3031559 47.07629204 C-97.30352479 43.90547516 -97.29096329 40.734978 -97.2746582 37.56420898 C-97.27837433 36.14702827 -97.27837433 36.14702827 -97.28216553 34.70121765 C-97.27508072 33.84244019 -97.26799591 32.98366272 -97.26069641 32.09886169 C-97.25864354 31.35107673 -97.25659067 30.60329176 -97.25447559 29.83284664 C-97 28 -97 28 -95 26 C-92.96313477 25.65283203 -92.96313477 25.65283203 -90.44140625 25.5078125 C-89.5076416 25.44489014 -88.57387695 25.38196777 -87.61181641 25.31713867 C-86.60554199 25.25373291 -85.59926758 25.19032715 -84.5625 25.125 C-68.49915994 23.91043037 -53.27629848 20.50055776 -37.94628906 15.61914062 C-36.12237441 15.03892894 -34.29184297 14.47963428 -32.4609375 13.921875 C-24.39046924 11.28737731 -17.32923037 7.62627468 -10.03930664 3.30200195 C-9.31219482 2.8762085 -8.58508301 2.45041504 -7.8359375 2.01171875 C-7.19188965 1.62459717 -6.5478418 1.23747559 -5.88427734 0.83862305 C-4 0 -4 0 0 0 Z " fill="#E0E8F4" transform="translate(492,363)"/>
<path d="M0 0 C6.579375 -0.061875 13.15875 -0.12375 19.9375 -0.1875 C21.99605225 -0.21481201 24.05460449 -0.24212402 26.17553711 -0.27026367 C27.83446672 -0.27903773 29.49340286 -0.28667948 31.15234375 -0.29296875 C31.99156372 -0.30831665 32.83078369 -0.32366455 33.69543457 -0.33947754 C42.10554394 -0.34314527 49.32747449 1.7240496 56 7 C62.47904698 14.19894109 62.67886341 20.27452455 62.44921875 29.6171875 C62.13847016 34.27351498 60.92810524 37.20617482 57.65234375 40.58984375 C57.10707031 41.05519531 56.56179688 41.52054687 56 42 C54.700625 43.2065625 54.700625 43.2065625 53.375 44.4375 C51.12016335 45.92094516 49.58708601 46.4378273 47 47 C50.8383541 53.77173041 55.11799553 60.10518749 59.74755859 66.35205078 C63 70.7919507 63 70.7919507 63 73 C63.66 73 64.32 73 65 73 C65 73.66 65 74.32 65 75 C58.66379107 76.20434805 52.18790879 77.31649292 46 75 C38.75113538 68.63453916 34.51846288 58.79615721 31 50 C26.05 50 21.1 50 16 50 C16 58.25 16 66.5 16 75 C10.72 75 5.44 75 0 75 C0 50.25 0 25.5 0 0 Z " fill="#ECEEF0" transform="translate(718,404)"/>
<path d="M0 0 C9.0646875 -0.12375 9.0646875 -0.12375 18.3125 -0.25 C20.19622314 -0.28641602 22.07994629 -0.32283203 24.02075195 -0.36035156 C35.46699598 -0.48981054 45.89082321 0.10597521 54.6328125 8.4296875 C60.06481726 14.66873296 60.38061225 22.34831607 60.2734375 30.2578125 C59.59544436 37.05711516 55.79601283 41.94911749 50.92578125 46.52734375 C43.49235765 52.21172651 34.07311987 52.14941229 25.125 52.0625 C22.11375 52.041875 19.1025 52.02125 16 52 C16 59.59 16 67.18 16 75 C10.72 75 5.44 75 0 75 C0 50.25 0 25.5 0 0 Z " fill="#EDEEF1" transform="translate(645,404)"/>
<path d="M0 0 C5.28 0 10.56 0 16 0 C18.73017045 3.2479614 20.18704945 5.42331598 21.95166016 9.08203125 C24.14817931 13.100628 27.05591979 16.66720414 29.8125 20.3125 C31.03405697 21.95330779 32.25411843 23.59523006 33.47265625 25.23828125 C34.0670752 26.03830566 34.66149414 26.83833008 35.27392578 27.66259766 C37.80043771 31.08393079 40.28209851 34.53623802 42.75 38 C43.15581299 38.56887939 43.56162598 39.13775879 43.97973633 39.72387695 C45.68915493 42.12785077 47.36355613 44.54533419 49 47 C49.33 31.49 49.66 15.98 50 0 C54.95 0 59.9 0 65 0 C65 24.75 65 49.5 65 75 C50 75 50 75 46.04296875 71.5546875 C45.03889966 70.02789768 44.08819802 68.46496382 43.1875 66.875 C42.12251766 65.21216155 41.05741222 63.54940194 39.9921875 61.88671875 C39.4878418 61.0570459 38.98349609 60.22737305 38.46386719 59.37255859 C36.40050006 56.02836217 34.12290937 52.86344456 31.8125 49.6875 C31.11769531 48.70136719 30.42289063 47.71523438 29.70703125 46.69921875 C25.57630648 41.05449096 21.26474433 35.54416763 17 30 C16.67 44.85 16.34 59.7 16 75 C10.72 75 5.44 75 0 75 C0 50.25 0 25.5 0 0 Z " fill="#538FED" transform="translate(890,506)"/>
<path d="M0 0 C4.95 0 9.9 0 15 0 C18.30538477 3.4412225 20.4065091 5.96664042 22.74365234 9.94091797 C25.24341881 14.03789239 28.10191886 17.89800322 30.875 21.8125 C31.97691753 23.4020977 33.07847414 24.99194565 34.1796875 26.58203125 C39.02602286 33.45510603 44.02670108 40.21822875 49 47 C49.33 31.49 49.66 15.98 50 0 C54.95 0 59.9 0 65 0 C65 24.75 65 49.5 65 75 C51 75 51 75 47.68359375 72.5703125 C46.51953125 70.93774414 46.51953125 70.93774414 45.4375 69.125 C45.00953125 68.50294678 44.5815625 67.88089355 44.140625 67.23999023 C43.21579818 65.89266463 42.30985455 64.53221875 41.42138672 63.16064453 C39.43070642 60.13461901 37.28615389 57.23048979 35.14477539 54.31005859 C33.59139619 52.1873914 32.05856016 50.05162683 30.53125 47.91015625 C25.73404953 41.23971268 20.85883437 34.62568324 16 28 C15.67 43.51 15.34 59.02 15 75 C10.05 75 5.1 75 0 75 C0 50.25 0 25.5 0 0 Z " fill="#EEF0F2" transform="translate(947,404)"/>
<path d="M0 0 C5.61 0 11.22 0 17 0 C17.87140625 2.05734375 18.7428125 4.1146875 19.640625 6.234375 C20.84346657 9.07303683 22.0467079 11.91152912 23.25 14.75 C23.56346375 15.48952911 23.87692749 16.22905823 24.19989014 16.99099731 C27.60592122 25.02489418 31.01760487 33.05622685 34.4609375 41.07421875 C34.73115723 41.70355316 35.00137695 42.33288757 35.27978516 42.98129272 C36.54812385 45.93403506 37.81836734 48.88594219 39.09082031 51.83691406 C40.40297383 54.88750917 41.70485073 57.94215154 43 61 C43.4031543 61.94375488 43.80630859 62.88750977 44.22167969 63.85986328 C44.7732373 65.1841333 44.7732373 65.1841333 45.3359375 66.53515625 C45.65868652 67.30351807 45.98143555 68.07187988 46.31396484 68.86352539 C47 71 47 71 47 75 C41.72 75 36.44 75 31 75 C26 62.375 26 62.375 26 59 C14.78 59 3.56 59 -8 59 C-8.99 62.3 -9.98 65.6 -11 69 C-11.66 70.98 -12.32 72.96 -13 75 C-18.61 75 -24.22 75 -30 75 C-27.46003055 65.55507657 -23.6800737 56.73605814 -19.875 47.75 C-18.85866067 45.33421839 -17.84409917 42.917695 -16.82958984 40.50114441 C-16.15928244 38.90487762 -15.48838841 37.30885703 -14.81689453 35.71308899 C-11.7267055 28.36652833 -8.7033482 20.99392042 -5.70263672 13.61035156 C-5.22334717 12.43230957 -5.22334717 12.43230957 -4.734375 11.23046875 C-4.46850586 10.57457764 -4.20263672 9.91868652 -3.92871094 9.24291992 C-2.64798244 6.14984614 -1.31873985 3.07705966 0 0 Z " fill="#ECEDF0" transform="translate(819,404)"/>
<path d="M0 0 C5.28 0 10.56 0 16 0 C16.33 11.22 16.66 22.44 17 34 C19.31 31.36 21.62 28.72 24 26 C25.21792799 24.6692228 26.44320327 23.3450219 27.68359375 22.03515625 C28.29614014 21.38417969 28.90868652 20.73320313 29.53979492 20.0625 C30.84062721 18.69154695 32.14708198 17.32591327 33.45825195 15.96484375 C36.95531983 12.30813736 39.87849904 8.72018954 42.6875 4.5 C44.71951972 2.08267632 46.14605365 1.1335608 49.27587891 0.64404297 C55.20283953 0.24323321 61.08635301 0.50578807 67 1 C63.81018543 4.78413228 60.62534802 8.49517115 57.0625 11.9375 C53.77679093 15.17323631 50.7330851 18.53951429 47.74609375 22.05078125 C45.39635396 24.67386884 42.81949045 27.022349 40.1875 29.359375 C38.76933933 30.91961802 38.76933933 30.91961802 39.26123047 32.86230469 C40.08155685 35.235992 41.1271453 36.83619374 42.6328125 38.84375 C43.18501465 39.58641113 43.7372168 40.32907227 44.30615234 41.09423828 C45.20648193 42.28509033 45.20648193 42.28509033 46.125 43.5 C46.73939941 44.3235498 47.35379883 45.14709961 47.98681641 45.99560547 C49.98406186 48.66918285 51.99084838 51.3353603 54 54 C56.11646486 56.80999024 58.23263337 59.62019748 60.34716797 62.43164062 C61.68700094 64.21120207 63.02972476 65.98859107 64.37548828 67.76367188 C64.98118652 68.56611328 65.58688477 69.36855469 66.2109375 70.1953125 C66.75024902 70.90703613 67.28956055 71.61875977 67.84521484 72.35205078 C69 74 69 74 69 75 C52.59170562 76.97101688 52.59170562 76.97101688 46.93359375 72.66796875 C44.82865179 69.85559983 42.98621832 67.0669798 41.23046875 64.03369141 C38.93262176 60.23586097 36.22208642 56.73626991 33.5625 53.1875 C33.05340088 52.4759375 32.54430176 51.764375 32.01977539 51.03125 C30.75300573 49.29824611 29.38395132 47.64094076 28 46 C24.47412453 46 23.59850824 46.53180805 20.875 48.6875 C14.97904191 54.59425655 15.96940694 62.87099278 15.9375 70.6875 C15.958125 72.110625 15.97875 73.53375 16 75 C10.72 75 5.44 75 0 75 C0 50.25 0 25.5 0 0 Z " fill="#518CEE" transform="translate(1009,506)"/>
<path d="M0 0 C0.99483398 0.27408691 0.99483398 0.27408691 2.00976562 0.55371094 C4.61560877 1.27243169 7.21037135 2.01236834 9.78515625 2.8359375 C16.36734991 4.83229514 23.77009943 4.8527572 30.5625 4.125 C32.80595276 2.67271292 32.80595276 2.67271292 34.5625 1.125 C37.3125 1.4375 37.3125 1.4375 39.5625 2.125 C39.9375 4.8125 39.9375 4.8125 39.5625 8.125 C37.75345883 10.3475363 36.00221575 11.49852284 33.5625 13.125 C32.5725 13.125 31.5825 13.125 30.5625 13.125 C35.32264204 25.76995832 40.20542565 38.35411721 45.32373047 50.85913086 C45.93498779 52.36745483 45.93498779 52.36745483 46.55859375 53.90625 C47.10277954 55.2375293 47.10277954 55.2375293 47.65795898 56.59570312 C49.08481833 60.58551764 49.89886907 63.09486971 48.5625 67.1875 C46.06672607 70.85316796 43.54048074 72.33896783 39.5625 74.125 C38.83289063 74.48207031 38.10328125 74.83914063 37.3515625 75.20703125 C30.53956077 77.44907664 21.46144614 77.31876406 14.58984375 75.21484375 C9.99247316 72.82789508 6.53922628 70.01975078 4.5625 65.125 C5.07491496 57.71968361 8.66240668 50.83000901 11.6875 44.1875 C12.41803589 42.55663452 12.41803589 42.55663452 13.16333008 40.89282227 C14.15095287 38.68909075 15.14188759 36.48684034 16.13623047 34.28613281 C17.83807495 30.51422553 19.51703868 26.73249135 21.19287109 22.94897461 C22.64442351 19.67208665 24.10341307 16.39853888 25.5625 13.125 C24.86165283 13.13023682 24.16080566 13.13547363 23.4387207 13.14086914 C20.25082299 13.16170852 17.06293964 13.17468232 13.875 13.1875 C12.77220703 13.19587891 11.66941406 13.20425781 10.53320312 13.21289062 C8.9331543 13.21772461 8.9331543 13.21772461 7.30078125 13.22265625 C5.83185425 13.23051147 5.83185425 13.23051147 4.33325195 13.23852539 C1.63247284 13.12786698 -0.80530491 12.71744912 -3.4375 12.125 C-6.18495768 11.76075372 -8.70261857 11.61566986 -11.4375 12.125 C-14.35540525 14.3754197 -14.35540525 14.3754197 -16.4375 17.125 C-18.4375 19.125 -18.4375 19.125 -21.5625 19.25 C-22.985625 19.188125 -22.985625 19.188125 -24.4375 19.125 C-24.99733773 9.60775862 -24.99733773 9.60775862 -21.4375 5.125 C-20.4375 4.125 -19.4375 3.125 -18.4375 2.125 C-18.1075 1.135 -17.7775 0.145 -17.4375 -0.875 C-11.37385864 -2.89621379 -6.01249265 -1.7142799 0 0 Z " fill="#EEF1F4" transform="translate(516.4375,433.875)"/>
<path d="M0 0 C5.94 0 11.88 0 18 0 C18.391875 1.4025 18.78375 2.805 19.1875 4.25 C20.34247379 8.10844056 21.69371431 11.77778053 23.28515625 15.4765625 C26.15561896 22.28295498 28.71502107 29.18796184 31.25 36.125 C32.12922104 38.5237996 33.00937928 40.92225597 33.890625 43.3203125 C34.27250977 44.36461426 34.65439453 45.40891602 35.04785156 46.48486328 C35.93149451 48.94763707 35.93149451 48.94763707 37 51 C39.94535319 46.60408247 41.51665757 42.03523378 43.1875 37.0625 C43.79835186 35.28346669 44.4103772 33.50483598 45.0234375 31.7265625 C45.34280273 30.7974707 45.66216797 29.86837891 45.99121094 28.91113281 C47.72572145 23.9057351 49.51368015 18.92008641 51.3125 13.9375 C51.64983154 12.99205322 51.98716309 12.04660645 52.3347168 11.07250977 C52.65351807 10.19135498 52.97231934 9.3102002 53.30078125 8.40234375 C53.72097534 7.23433228 53.72097534 7.23433228 54.1496582 6.04272461 C55 4 55 4 57 1 C59.95064148 0.7791436 62.68368231 0.71939011 65.625 0.8125 C66.42679688 0.82603516 67.22859375 0.83957031 68.0546875 0.85351562 C70.03674378 0.88890949 72.01845551 0.94271766 74 1 C73.63648438 1.95777344 73.27296875 2.91554688 72.8984375 3.90234375 C70.15662762 11.15612091 67.48366441 18.4251106 64.9375 25.75 C62.96607536 31.39552932 60.84285045 36.92667338 58.48828125 42.42578125 C55.9536278 48.51294111 53.59401432 54.66957307 51.2097168 60.81689453 C50.83886963 61.77063965 50.46802246 62.72438477 50.0859375 63.70703125 C49.7564209 64.5575708 49.4269043 65.40811035 49.08740234 66.28442383 C47.78132471 69.54609908 46.38401763 72.77062553 45 76 C39.72 76 34.44 76 29 76 C28.40832031 74.39511719 27.81664062 72.79023437 27.20703125 71.13671875 C26.40906406 68.98690125 25.61087509 66.83716605 24.8125 64.6875 C24.42513672 63.63498047 24.03777344 62.58246094 23.63867188 61.49804688 C21.35800094 55.37227783 18.87795543 49.41006648 16.12719727 43.48120117 C14.60875069 40.13877698 13.32640204 36.75983861 12.0625 33.3125 C11.55746774 31.94264341 11.05225382 30.57285378 10.546875 29.203125 C10.29357422 28.51283203 10.04027344 27.82253906 9.77929688 27.11132812 C8.99324947 24.98171098 8.19429923 22.85739822 7.390625 20.734375 C4.79058036 13.86493436 2.24827451 6.9946318 0 0 Z " fill="#4F8CED" transform="translate(640,506)"/>
<path d="M0 0 C5.94 0 11.88 0 18 0 C24.27 16.83 30.54 33.66 37 51 C41.79904671 43.80142993 44.10618793 34.9544864 46.875 26.8125 C49.98756676 17.74956726 53.34706386 8.85837013 57 0 C62.61 0 68.22 0 74 0 C73.14483178 4.27584109 72.05408263 7.62812053 70.41796875 11.62890625 C70.16251785 12.25925278 69.90706696 12.8895993 69.64387512 13.53904724 C68.82922875 15.54858061 68.0089996 17.55575943 67.1875 19.5625 C63.83787321 27.75215159 60.56650774 35.91630927 57.88330078 44.35620117 C54.38677785 54.82160935 49.43702173 64.90795057 45 75 C39.72 75 34.44 75 29 75 C28.48050781 73.62328125 27.96101562 72.2465625 27.42578125 70.828125 C26.72145768 68.96871079 26.01702468 67.10933802 25.3125 65.25 C24.97283203 64.34894531 24.63316406 63.44789063 24.28320312 62.51953125 C22.09889653 56.7627606 19.79612822 51.068881 17.41235352 45.39208984 C14.80325802 39.12575056 12.27771975 32.82564012 9.7512207 26.52563477 C9.12156592 24.95731125 8.49036187 23.38960891 7.85766602 21.82250977 C6.92905284 19.52234759 6.0050468 17.22038195 5.08203125 14.91796875 C4.80180618 14.22616013 4.52158112 13.5343515 4.23286438 12.82157898 C3.83686287 11.82938103 3.83686287 11.82938103 3.43286133 10.81713867 C3.20367508 10.24710617 2.97448883 9.67707367 2.73835754 9.08976746 C1.68416588 6.1060972 0.86933539 3.04267387 0 0 Z " fill="#ECEEF0" transform="translate(861,404)"/>
<path d="M0 0 C5.87111028 2.67188252 9.03253253 5.547597 12.234375 11.125 C14.53295898 18.02075193 14.75649364 29.06324896 11.671875 35.8125 C8.40919099 40.96106165 3.23678546 45.69585465 -2.765625 47.125 C-8.8051645 47.76502827 -14.50461391 47.35431982 -19.765625 44.125 C-25.19818839 39.18436164 -28.47114723 34.59709834 -29.1015625 27.1640625 C-29.12529186 25.69284207 -29.13805261 24.22140953 -29.140625 22.75 C-29.16511719 22.02039063 -29.18960938 21.29078125 -29.21484375 20.5390625 C-29.24927711 14.11150258 -27.41458088 9.98889309 -22.984375 5.19921875 C-22.4171875 4.74160156 -21.85 4.28398438 -21.265625 3.8125 C-20.6984375 3.34199219 -20.13125 2.87148438 -19.546875 2.38671875 C-13.52006325 -1.88227291 -7.02129217 -2.22142577 0 0 Z " fill="#12192B" transform="translate(762.765625,520.875)"/>
<path d="M0 0 C19.92307692 0 19.92307692 0 27.75 4.625 C33.0623609 10.23249206 35.33008559 15.1974072 35.625 23 C35.33008559 30.8025928 33.0623609 35.76750794 27.75 41.375 C18.4334429 46.88023829 11.65864188 46 0 46 C0 30.82 0 15.64 0 0 Z " fill="#13192C" transform="translate(824,521)"/>
<path d="M0 0 C0 2.97 0 5.94 0 9 C3.54518884 7.60240095 3.54518884 7.60240095 7 6 C5.69063102 8.92090003 4.24380538 10.75619462 2 13 C1.08307039 15.75078884 0.89113917 17.35948913 0.9375 20.1875 C0.958125 21.445625 0.97875 22.70375 1 24 C2.98 24.495 2.98 24.495 5 25 C5 26.65 5 28.3 5 30 C4.505 28.515 4.505 28.515 4 27 C1.69 27.33 -0.62 27.66 -3 28 C-3.48210937 27.36191406 -3.96421875 26.72382813 -4.4609375 26.06640625 C-5.09257812 25.24011719 -5.72421875 24.41382813 -6.375 23.5625 C-7.00148438 22.73878906 -7.62796875 21.91507812 -8.2734375 21.06640625 C-9.83753904 18.91471908 -9.83753904 18.91471908 -12 18 C-13.89911427 18.0938956 -15.79507786 18.25259506 -17.6875 18.4375 C-28.11109348 19.28707188 -38.54958992 19.08778453 -49 19 C-48.65243652 19.66829834 -48.30487305 20.33659668 -47.94677734 21.02514648 C-43.79388214 29.15420343 -40.11827815 37.43421194 -36.56591797 45.83959961 C-35.61196315 48.09329931 -34.64806472 50.34258055 -33.68359375 52.59179688 C-33.07231936 54.03099645 -32.46162015 55.47044049 -31.8515625 56.91015625 C-31.56415192 57.57886246 -31.27674133 58.24756866 -30.98062134 58.9365387 C-29.77840438 61.80115968 -29 63.85848181 -29 67 C-29.99 67 -30.98 67 -32 67 C-34.86548353 63.15950778 -36.33722115 58.72247994 -37.9375 54.25 C-39.80423774 49.15307957 -41.7093669 44.11940639 -43.99194336 39.19042969 C-45.05336054 36.88405163 -46.08803057 34.56703478 -47.1171875 32.24609375 C-47.47151855 31.44743896 -47.82584961 30.64878418 -48.19091797 29.82592773 C-48.45791504 29.22337158 -48.72491211 28.62081543 -49 28 C-49.02505615 28.72477539 -49.0501123 29.44955078 -49.07592773 30.19628906 C-49.19348617 33.54763745 -49.31547303 36.89881146 -49.4375 40.25 C-49.47681641 41.38953125 -49.51613281 42.5290625 -49.55664062 43.703125 C-49.83199768 51.1589468 -50.30978258 58.57105863 -51 66 C-51.99 66 -52.98 66 -54 66 C-54 54.78 -54 43.56 -54 32 C-56.49935089 38.5951931 -56.49935089 38.5951931 -58.99536133 45.19165039 C-60.8908186 50.18027835 -62.85578347 55.11318093 -65 60 C-65.31324219 60.73089844 -65.62648438 61.46179688 -65.94921875 62.21484375 C-66.19285156 62.78332031 -66.43648438 63.35179687 -66.6875 63.9375 C-67.120625 64.948125 -67.55375 65.95875 -68 67 C-68.99 67 -69.98 67 -71 67 C-65.59378876 50.71588054 -59.85472429 34.73915915 -53 19 C-53.94101562 18.87109375 -54.88203125 18.7421875 -55.8515625 18.609375 C-59.56995408 17.88968631 -60.79839676 17.04837372 -63 14 C-63.375 11.375 -63.375 11.375 -63 9 C-62.34 8.34 -61.68 7.68 -61 7 C-59.68 7 -58.36 7 -57 7 C-56.53319824 7.48726563 -56.06639648 7.97453125 -55.58544922 8.4765625 C-53.3175308 10.65577576 -51.7339776 10.39997164 -48.6328125 10.375 C-41.78503357 10.20189936 -35.47678886 8.72626281 -28.875 7 C-21.09800171 4.98070922 -14.06310827 3.50981385 -6 4 C-5.67 3.01 -5.34 2.02 -5 1 C-3 0 -3 0 0 0 Z " fill="#ECEEF2" transform="translate(492,428)"/>
<path d="M0 0 C5.28 0 10.56 0 16 0 C16 24.75 16 49.5 16 75 C10.72 75 5.44 75 0 75 C0 50.25 0 25.5 0 0 Z " fill="#528DEC" transform="translate(974,506)"/>
<path d="M0 0 C5.28 0 10.56 0 16 0 C16 24.75 16 49.5 16 75 C10.72 75 5.44 75 0 75 C0 50.25 0 25.5 0 0 Z " fill="#EBEDF0" transform="translate(1031,404)"/>
<path d="M0 0 C2.68792129 3.58389505 3.89495117 6.00271634 5.375 10.125 C7.23897439 15.13478103 9.34828496 19.83950688 11.80078125 24.58203125 C14.40511625 29.83311712 16.6930749 35.27566805 18 41 C19.98 40.505 19.98 40.505 22 40 C22 40.66 22 41.32 22 42 C9.13 42 -3.74 42 -17 42 C-17 35.84111258 -16.91347939 35.64832393 -14 31 C-12.70826792 27.75150027 -11.61113039 24.43898277 -10.5 21.125 C-8.53277698 15.30923588 -6.50583474 9.6075692 -4 4 C-3.67 4 -3.34 4 -3 4 C-2.83368661 16.03000164 -3.3475014 27.9895138 -4 40 C-3.01 40 -2.02 40 -1 40 C-0.67 26.8 -0.34 13.6 0 0 Z " fill="#171D2D" transform="translate(442,454)"/>
<path d="M0 0 C16.83 0 33.66 0 51 0 C51.66 1.32 52.32 2.64 53 4 C53.99 4.66 54.98 5.32 56 6 C56 7.98 56 9.96 56 12 C35.87 12 15.74 12 -5 12 C-5 10.02 -5 8.04 -5 6 C-4.360625 5.7525 -3.72125 5.505 -3.0625 5.25 C-0.50980961 4.03378366 -0.50980961 4.03378366 0 0 Z " fill="#EBECF0" transform="translate(467,555)"/>
<path d="M0 0 C0.33 0 0.66 0 1 0 C1.06058594 1.04800781 1.12117187 2.09601563 1.18359375 3.17578125 C1.26801738 4.55470048 1.35266447 5.93360605 1.4375 7.3125 C1.47681641 8.00279297 1.51613281 8.69308594 1.55664062 9.40429688 C1.74927415 12.47161535 2.02322717 15.06968152 3 18 C3.08021999 19.40824893 3.10765977 20.81997231 3.09765625 22.23046875 C3.09443359 23.03291016 3.09121094 23.83535156 3.08789062 24.66210938 C3.07951172 25.49548828 3.07113281 26.32886719 3.0625 27.1875 C3.05798828 28.03248047 3.05347656 28.87746094 3.04882812 29.74804688 C3.03705403 31.83206155 3.0191189 33.91603977 3 36 C4.32 36 5.64 36 7 36 C6.93941406 35.40687012 6.87882813 34.81374023 6.81640625 34.20263672 C5.66580942 22.76968705 4.64668458 11.50237974 5 0 C7.46374789 3.01426381 8.94301188 5.93026215 10.375 9.54296875 C10.80296875 10.61740234 11.2309375 11.69183594 11.671875 12.79882812 C12.32929687 14.4762207 12.32929687 14.4762207 13 16.1875 C13.65742187 17.83588867 13.65742187 17.83588867 14.328125 19.51757812 C16.75353685 25.64320413 18.91113209 31.73339626 21 38 C8.79 38 -3.42 38 -16 38 C-14.68336064 34.05008193 -13.44313622 30.63748904 -11.6875 26.9375 C-9.76290622 22.78264166 -8.04853511 18.59864898 -6.4375 14.3125 C-4.5677167 9.35402402 -2.47842738 4.68147394 0 0 Z " fill="#181F31" transform="translate(541,458)"/>
<path d="M0 0 C5.506875 -0.12375 5.506875 -0.12375 11.125 -0.25 C12.2711377 -0.28641602 13.41727539 -0.32283203 14.59814453 -0.36035156 C20.72963641 -0.4270099 24.36696711 -0.15428615 29 4 C31.35242347 7.20785018 31.4684209 10.09649252 31 14 C28.82591872 18.43512582 26.71317704 20.57135832 22.12866211 22.41772461 C17.99478002 23.54850896 13.81360761 23.30592596 9.5625 23.1875 C4.8290625 23.0946875 4.8290625 23.0946875 0 23 C0 15.41 0 7.82 0 0 Z " fill="#181E2E" transform="translate(734,418)"/>
<path d="M0 0 C3.17625 -0.0825 6.3525 -0.165 9.625 -0.25 C10.6145166 -0.28641602 11.6040332 -0.32283203 12.62353516 -0.36035156 C18.42835172 -0.43310245 21.56166724 0.18758596 26 4 C28.33050995 6.96610357 28.47717205 10.23929081 28.38671875 13.96875 C27.68005565 17.68051579 25.70651812 19.41650543 23 22 C20.044368 23.80350126 17.89639029 24.24184311 14.453125 24.1953125 C13.69161133 24.19031738 12.93009766 24.18532227 12.14550781 24.18017578 C10.71223145 24.15286377 10.71223145 24.15286377 9.25 24.125 C4.67125 24.063125 4.67125 24.063125 0 24 C0 16.08 0 8.16 0 0 Z " fill="#171E2F" transform="translate(661,418)"/>
<path d="M0 0 C0 3.96 0 7.92 0 12 C-15.5509291 20.553011 -30.4813153 27.58025675 -48 31 C-48.02689216 29.52093108 -48.04634621 28.04172517 -48.0625 26.5625 C-48.07410156 25.73878906 -48.08570313 24.91507812 -48.09765625 24.06640625 C-48 22 -48 22 -47 21 C-47.66 20.34 -48.32 19.68 -49 19 C-48.410979 18.80889648 -47.82195801 18.61779297 -47.21508789 18.42089844 C-44.49591832 17.53555025 -41.77922486 16.64282038 -39.0625 15.75 C-37.67321289 15.29947266 -37.67321289 15.29947266 -36.25585938 14.83984375 C-26.69534273 11.68655054 -17.98649762 7.60390418 -9.24414062 2.6484375 C-5.80050215 0.75390217 -4.02545904 0 0 0 Z " fill="#A4B9DD" transform="translate(492,363)"/>
<path d="M0 0 C14.85 0 29.7 0 45 0 C42.60710721 7.17867837 40.2026443 9.38309321 33.7890625 12.62109375 C29.92665183 14.21892868 26.20731441 14.46138133 22.0625 14.375 C21.00808716 14.35977295 21.00808716 14.35977295 19.93237305 14.34423828 C13.97618707 14.1659466 9.08695481 13.71277847 4.453125 9.640625 C1.47518872 6.39500906 0.88670644 4.43353222 0 0 Z " fill="#EEF0F3" transform="translate(420,496)"/>
<path d="M0 0 C14.85 0 29.7 0 45 0 C41.60307692 7.92615385 41.60307692 7.92615385 35 11 C34.27039063 11.35578125 33.54078125 11.7115625 32.7890625 12.078125 C25.98183612 14.3281326 16.8965232 14.19302222 10.02734375 12.08984375 C5.27941434 9.62472514 2.42601823 6.74655742 0 2 C0 1.34 0 0.68 0 0 Z " fill="#F0F1F4" transform="translate(521,497)"/>
<path d="M0 0 C2.90829642 2.11699315 3.6752142 4.4950693 5.06225586 7.79443359 C5.33328629 8.42902496 5.60431671 9.06361633 5.88356018 9.71743774 C6.74863083 11.75108095 7.59504322 13.79190554 8.44116211 15.83349609 C9.00570815 17.16864343 9.57145232 18.50328483 10.13842773 19.83740234 C11.24785627 22.45411346 12.34692241 25.07478087 13.43676758 27.69970703 C14.45130982 30.14279437 15.48343409 32.57545323 16.52758789 35.00634766 C16.98504395 36.07594727 17.4425 37.14554687 17.91381836 38.24755859 C18.31866455 39.1855127 18.72351074 40.1234668 19.140625 41.08984375 C20.00366211 43.45849609 20.00366211 43.45849609 20.00366211 46.45849609 C19.01366211 46.45849609 18.02366211 46.45849609 17.00366211 46.45849609 C14.13817858 42.61800388 12.66644096 38.18097603 11.06616211 33.70849609 C9.19942437 28.61157567 7.29429521 23.57790249 5.01171875 18.64892578 C3.95030156 16.34254773 2.91563154 14.02553088 1.88647461 11.70458984 C1.35497803 10.50660767 1.35497803 10.50660767 0.81274414 9.28442383 C0.54574707 8.68186768 0.27875 8.07931152 0.00366211 7.45849609 C-0.02139404 8.18327148 -0.0464502 8.90804688 -0.07226562 9.65478516 C-0.18982406 13.00613354 -0.31181092 16.35730755 -0.43383789 19.70849609 C-0.4731543 20.84802734 -0.5124707 21.98755859 -0.55297852 23.16162109 C-0.82833557 30.61744289 -1.30612047 38.02955473 -1.99633789 45.45849609 C-2.98633789 45.45849609 -3.97633789 45.45849609 -4.99633789 45.45849609 C-4.99633789 34.23849609 -4.99633789 23.01849609 -4.99633789 11.45849609 C-7.49568878 18.0536892 -7.49568878 18.0536892 -9.99169922 24.65014648 C-11.88715649 29.63877445 -13.85212136 34.57167702 -15.99633789 39.45849609 C-16.30958008 40.18939453 -16.62282227 40.92029297 -16.94555664 41.67333984 C-17.18918945 42.24181641 -17.43282227 42.81029297 -17.68383789 43.39599609 C-18.11696289 44.40662109 -18.55008789 45.41724609 -18.99633789 46.45849609 C-19.98633789 46.45849609 -20.97633789 46.45849609 -21.99633789 46.45849609 C-17.68849547 33.46511192 -13.32898016 20.4858084 -8.24633789 7.77099609 C-7.965 7.04654297 -7.68366211 6.32208984 -7.39379883 5.57568359 C-6.6809158 3.83213654 -5.84799703 2.13862563 -4.99633789 0.45849609 C-1.99633789 -0.54150391 -1.99633789 -0.54150391 0 0 Z " fill="#E2E4E9" transform="translate(442.996337890625,448.54150390625)"/>
<path d="M0 0 C0 3.63 0 7.26 0 11 C0.33 11 0.66 11 1 11 C2.33418593 20.38695104 3.32417212 29.49095101 3 39 C1.68 39 0.36 39 -1 39 C-1.06058594 37.73542969 -1.12117187 36.47085938 -1.18359375 35.16796875 C-1.26800904 33.50780129 -1.35265655 31.84764563 -1.4375 30.1875 C-1.47681641 29.35412109 -1.51613281 28.52074219 -1.55664062 27.66210938 C-1.59853516 26.85966797 -1.64042969 26.05722656 -1.68359375 25.23046875 C-1.72025146 24.49207764 -1.75690918 23.75368652 -1.79467773 22.99291992 C-1.94842141 20.792505 -1.94842141 20.792505 -3 18 C-3.22560676 15.60745424 -3.40848595 13.21071877 -3.5625 10.8125 C-3.64628906 9.54019531 -3.73007812 8.26789063 -3.81640625 6.95703125 C-3.87699219 5.98121094 -3.93757812 5.00539063 -4 4 C-7.81682798 12.56861382 -11.53828695 21.12287921 -14.76171875 29.9375 C-16.29112786 33.72001337 -18.17536307 37.35072614 -20 41 C-8.12 40.67 3.76 40.34 16 40 C14.02 34.72 12.04 29.44 10 24 C10 23.01 10 22.02 10 21 C10.99 21 11.98 21 13 21 C14.1492567 23.74861395 15.29451341 26.49877984 16.4375 29.25 C16.76298828 30.02730469 17.08847656 30.80460937 17.42382812 31.60546875 C17.89272461 32.73662109 17.89272461 32.73662109 18.37109375 33.890625 C18.65911865 34.58188477 18.94714355 35.27314453 19.24389648 35.98535156 C20 38 20 38 21 42 C6.15 42 -8.7 42 -24 42 C-21.083698 33.9801695 -18.0427422 26.14202453 -14.68115234 18.31713867 C-13.86367984 16.41110572 -13.05474548 14.50158622 -12.24609375 12.59179688 C-11.72917969 11.38458984 -11.21226562 10.17738281 -10.6796875 8.93359375 C-10.21288574 7.84103271 -9.74608398 6.74847168 -9.26513672 5.62280273 C-8 3 -8 3 -6 1 C-3.90200436 0.34437636 -2.19959601 0 0 0 Z " fill="#DCE0E7" transform="translate(545,455)"/>
<path d="M0 0 C2.7972908 2.06756277 3.02692273 3.14440371 3.6875 6.6875 C3.790625 7.780625 3.89375 8.87375 4 10 C8.29 10.33 12.58 10.66 17 11 C14.42215154 13.64752004 12.08351902 15.94432065 9 18 C9.350625 19.2375 9.70125 20.475 10.0625 21.75 C10.95593273 24.903292 11.00881294 26.86774164 10 30 C9.46890625 29.62746094 8.9378125 29.25492187 8.390625 28.87109375 C7.68421875 28.39800781 6.9778125 27.92492187 6.25 27.4375 C5.55390625 26.96183594 4.8578125 26.48617188 4.140625 25.99609375 C2.08253063 24.81421329 2.08253063 24.81421329 -0.03125 25.21875 C-2.06037994 26.0239603 -3.87525677 26.94486461 -5.75 28.0625 C-6.8225 28.701875 -7.895 29.34125 -9 30 C-8.44687265 25.97007218 -7.8441938 21.97977076 -7 18 C-9.64 16.02 -12.28 14.04 -15 12 C-11.79619983 9.86413322 -10.98060033 9.76867825 -7.3125 9.875 C-6.10013672 9.90207031 -6.10013672 9.90207031 -4.86328125 9.9296875 C-3.94095703 9.96449219 -3.94095703 9.96449219 -3 10 C-2.87625 9.0925 -2.7525 8.185 -2.625 7.25 C-2.07890323 4.41029677 -1.42736197 2.47409409 0 0 Z " fill="#7EAFF5" transform="translate(492,391)"/>
<path d="M0 0 C2.81503255 2.40832813 3.77972578 4.63677037 4.9375 8.125 C6.47463368 12.59989881 8.22605937 16.85760114 10.265625 21.125 C11 23 11 23 11 26 C4.07 26 -2.86 26 -10 26 C-8.0386524 19.46217468 -6.10258645 13.51435515 -3.3125 7.375 C-2.99216797 6.65699219 -2.67183594 5.93898438 -2.34179688 5.19921875 C-1.56660723 3.46371955 -0.78411018 1.73148713 0 0 Z " fill="#1C2233" transform="translate(827,423)"/>
<path d="M0 0 C0.33 0 0.66 0 1 0 C1.12139925 8.7812123 0.97972714 17.53771051 0.625 26.3125 C0.59414307 27.23764404 0.56328613 28.16278809 0.53149414 29.1159668 C0.4927417 29.98133057 0.45398926 30.84669434 0.4140625 31.73828125 C0.3826416 32.51212158 0.3512207 33.28596191 0.31884766 34.08325195 C0 36 0 36 -2 38 C-4.6015625 38.1953125 -4.6015625 38.1953125 -7.625 38.125 C-8.62789063 38.10695313 -9.63078125 38.08890625 -10.6640625 38.0703125 C-11.82035156 38.03550781 -11.82035156 38.03550781 -13 38 C-13.37618386 32.60803132 -13.37618386 32.60803132 -11.70703125 29.91015625 C-9.32899152 25.85606105 -7.98997296 21.56889316 -6.5 17.125 C-4.53277698 11.30923588 -2.50583474 5.6075692 0 0 Z " fill="#1D2335" transform="translate(438,458)"/>
<path d="M0 0 C3.63 0 7.26 0 11 0 C11.04626079 13.65574395 11.08183729 27.31146938 11.10362434 40.96727562 C11.11407896 47.3076389 11.12826869 53.64794874 11.15087891 59.98828125 C11.17254755 66.10257114 11.18455597 72.21680949 11.18975449 78.3311348 C11.19346102 80.66842079 11.20069852 83.00570383 11.21146011 85.34296799 C11.22589556 88.60680067 11.22798128 91.87041808 11.22705078 95.13427734 C11.23424133 96.10891434 11.24143188 97.08355133 11.24884033 98.08772278 C11.246091 98.97395828 11.24334167 99.86019379 11.24050903 100.77328491 C11.24235262 101.54574743 11.24419621 102.31820995 11.24609566 103.11408043 C11 105 11 105 9 107 C8.67 72.35 8.34 37.7 8 2 C5.36 1.67 2.72 1.34 0 1 C0 0.67 0 0.34 0 0 Z " fill="#4B84DE" transform="translate(579,390)"/>
<path d="M0 0 C2.49647222 2.49647222 2.7636257 4.42217395 3.6875 7.8125 C5.02453848 12.07272145 5.92028306 14.53909141 9.75 16.9375 C10.8225 17.618125 11.895 18.29875 13 19 C13.5 21.75 13.5 21.75 13 24 C12 25 12 25 9.71484375 25.09765625 C8.34005859 25.08025391 8.34005859 25.08025391 6.9375 25.0625 C6.01839844 25.05347656 5.09929687 25.04445313 4.15234375 25.03515625 C3.44207031 25.02355469 2.73179687 25.01195312 2 25 C-0.29612756 8.29157175 -0.29612756 8.29157175 0 0 Z " fill="#E7EAED" transform="translate(502,528)"/>
<path d="M0 0 C4.62 0 9.24 0 14 0 C14.33 4.29 14.66 8.58 15 13 C10.545 15.97 10.545 15.97 6 19 C6.55312735 14.97007218 7.1558062 10.97977076 8 7 C7.13375 6.36771484 7.13375 6.36771484 6.25 5.72265625 C5.5075 5.17480469 4.765 4.62695312 4 4.0625 C3.2575 3.51722656 2.515 2.97195313 1.75 2.41015625 C1.1725 1.94480469 0.595 1.47945313 0 1 C0 0.67 0 0.34 0 0 Z " fill="#A8C4EC" transform="translate(477,402)"/>
<path d="M0 0 C0.33 0 0.66 0 1 0 C1.22226671 5.91476412 0.89545104 11.14353179 -0.5546875 16.8828125 C-1.20581527 19.97852525 -1.13415323 22.8473992 -1 26 C-2.64574566 26.02688151 -4.29161413 26.04634123 -5.9375 26.0625 C-6.85402344 26.07410156 -7.77054687 26.08570313 -8.71484375 26.09765625 C-11 26 -11 26 -12 25 C-12.04063832 23.33382885 -12.042721 21.66611905 -12 20 C-10.90558594 19.51015625 -9.81117188 19.0203125 -8.68359375 18.515625 C-4.83199746 16.31471283 -3.80323909 14.13680712 -2.60742188 9.9609375 C-2.42759766 9.23132813 -2.24777344 8.50171875 -2.0625 7.75 C-1.85560547 7.00492188 -1.64871094 6.25984375 -1.43554688 5.4921875 C-0.93272192 3.66798533 -0.46294868 1.8347275 0 0 Z " fill="#E1E3E8" transform="translate(482,527)"/>
<path d="M0 0 C0.99 0 1.98 0 3 0 C4.1492567 2.74861395 5.29451341 5.49877984 6.4375 8.25 C6.76298828 9.02730469 7.08847656 9.80460937 7.42382812 10.60546875 C7.73642578 11.35957031 8.04902344 12.11367188 8.37109375 12.890625 C8.65911865 13.58188477 8.94714355 14.27314453 9.24389648 14.98535156 C10 17 10 17 11 21 C-3.85 21 -18.7 21 -34 21 C-33.67 20.34 -33.34 19.68 -33 19 C-20.13 19 -7.26 19 6 19 C4.02 13.72 2.04 8.44 0 3 C0 2.01 0 1.02 0 0 Z " fill="#CBCFD7" transform="translate(555,476)"/>
<path d="M0 0 C1.29594011 3.58617466 0.71262241 5.44001234 -0.80078125 8.87890625 C-1.20103516 9.79994141 -1.60128906 10.72097656 -2.01367188 11.66992188 C-2.6565918 13.10174805 -2.6565918 13.10174805 -3.3125 14.5625 C-3.93801758 16.00012695 -3.93801758 16.00012695 -4.57617188 17.46679688 C-6.20792099 21.18052254 -7.7449886 24.6174829 -10 28 C-10.99 28 -11.98 28 -13 28 C-11.19123432 22.04171305 -8.95847831 16.33933574 -6.5 10.625 C-6.20343506 9.92310547 -5.90687012 9.22121094 -5.60131836 8.49804688 C-4.14242802 5.15652212 -2.89109097 2.30934706 0 0 Z " fill="#CBCFD8" transform="translate(535,467)"/>
<path d="M0 0 C0.33 0 0.66 0 1 0 C1 13.2 1 26.4 1 40 C0.01 40 -0.98 40 -2 40 C-2.0291544 36.60418484 -2.04685068 33.20840214 -2.0625 29.8125 C-2.07087891 28.85279297 -2.07925781 27.89308594 -2.08789062 26.90429688 C-2.09111328 25.97294922 -2.09433594 25.04160156 -2.09765625 24.08203125 C-2.10289307 23.22843018 -2.10812988 22.3748291 -2.11352539 21.49536133 C-1.99555529 18.9023023 -1.54160632 16.53504709 -1 14 C-0.78301513 11.56494763 -0.59709255 9.12698616 -0.4375 6.6875 C-0.35371094 5.43324219 -0.26992188 4.17898438 -0.18359375 2.88671875 C-0.12300781 1.93410156 -0.06242187 0.98148437 0 0 Z " fill="#F7F9FC" transform="translate(440,454)"/>
<path d="M0 0 C0.66 0 1.32 0 2 0 C2.79540108 4.19795017 3.13525451 8.16649745 3.125 12.4375 C3.12757813 13.50871094 3.13015625 14.57992187 3.1328125 15.68359375 C2.9943816 19.14029471 2.48924318 22.57529771 2 26 C7.61 26 13.22 26 19 26 C19 24.02 19 22.04 19 20 C19.33 20 19.66 20 20 20 C20 22.31 20 24.62 20 27 C13.73 27 7.46 27 1 27 C0.67 25.02 0.34 23.04 0 21 C-0.66 22.32 -1.32 23.64 -2 25 C-1.08695652 17.43478261 -1.08695652 17.43478261 -0.4375 14.1875 C0.21096855 9.46294343 0.07624581 4.76112736 0 0 Z " fill="#656B79" transform="translate(482,526)"/>
<path d="M0 0 C1.41377341 2.63904371 2.37240135 5.07120629 3 8 C2.67 8 2.34 8 2 8 C1.67 16.58 1.34 25.16 1 34 C0.67 34 0.34 34 0 34 C-0.33 29.38 -0.66 24.76 -1 20 C-1.33 20 -1.66 20 -2 20 C-2.33 16.7 -2.66 13.4 -3 10 C-3.99 10 -4.98 10 -6 10 C-5.57742724 8.5164999 -5.13643678 7.03823576 -4.6875 5.5625 C-4.32205078 4.32693359 -4.32205078 4.32693359 -3.94921875 3.06640625 C-3.63597656 2.38449219 -3.32273437 1.70257813 -3 1 C-2.01 0.67 -1.02 0.34 0 0 Z " fill="#C5CAD2" transform="translate(441,448)"/>
<path d="M0 0 C2.22652997 3.33979496 3.64941252 6.79338073 5.125 10.5 C5.40214844 11.17675781 5.67929687 11.85351562 5.96484375 12.55078125 C7.15187214 15.5154285 8 17.77680496 8 21 C7.01 21.33 6.02 21.66 5 22 C3.76993628 19.27885905 2.56608321 16.55064806 1.375 13.8125 C1.024375 13.04357422 0.67375 12.27464844 0.3125 11.48242188 C-2.17660385 5.68280992 -2.17660385 5.68280992 -1.2109375 1.94921875 C-0.61152344 0.98435547 -0.61152344 0.98435547 0 0 Z " fill="#DFE3E9" transform="translate(549,455)"/>
<path d="M0 0 C1.65 0 3.3 0 5 0 C5 5.61 5 11.22 5 17 C4.67 17 4.34 17 4 17 C3.67 12.38 3.34 7.76 3 3 C1.68 6.3 0.36 9.6 -1 13 C-1.99 13 -2.98 13 -4 13 C-4.33 12.34 -4.66 11.68 -5 11 C-4.00390625 8.3984375 -4.00390625 8.3984375 -2.5625 5.375 C-2.08941406 4.37210937 -1.61632812 3.36921875 -1.12890625 2.3359375 C-0.75636719 1.56507813 -0.38382813 0.79421875 0 0 Z " fill="#B6BAC4" transform="translate(538,456)"/>
<path d="M0 0 C0.33 0 0.66 0 1 0 C1 7.59 1 15.18 1 23 C-4.28 23 -9.56 23 -15 23 C-15 22.34 -15 21.68 -15 21 C-10.38 21 -5.76 21 -1 21 C-0.67 14.07 -0.34 7.14 0 0 Z " fill="#CED0D4" transform="translate(660,456)"/>
<path d="M0 0 C2.44786227 2.44786227 3.30080644 4.74317342 4.625 7.9375 C5.07101562 8.99839844 5.51703125 10.05929687 5.9765625 11.15234375 C7 14 7 14 7 17 C6.01 17 5.02 17 4 17 C0.55216982 12.69021227 -0.56743317 7.23242495 -2 2 C-1.34 1.34 -0.68 0.68 0 0 Z " fill="#E1E5EC" transform="translate(456,478)"/>
<path d="M0 0 C0.99 0 1.98 0 3 0 C3.33188114 4.756963 2.62235719 7.06646421 0 11 C-0.69822617 12.65369357 -1.37498605 14.31727014 -2 16 C-2.99 16 -3.98 16 -5 16 C-4.80664062 15.43152344 -4.61328125 14.86304688 -4.4140625 14.27734375 C-2.81863577 9.54635062 -1.33099414 4.81205575 0 0 Z " fill="#D7DAE0" transform="translate(426,479)"/>
<path d="M0 0 C1.5 1.375 1.5 1.375 3 3 C3 3.66 3 4.32 3 5 C2.01 5.66 1.02 6.32 0 7 C-0.22137393 9.62697064 -0.28162025 12.00893964 -0.1875 14.625 C-0.17396484 15.33140625 -0.16042969 16.0378125 -0.14648438 16.765625 C-0.1111104 18.51074128 -0.05730221 20.25546608 0 22 C-0.33 22 -0.66 22 -1 22 C-1 18.37 -1 14.74 -1 11 C-4.63 11 -8.26 11 -12 11 C-12 10.67 -12 10.34 -12 10 C-9.03 10 -6.06 10 -3 10 C-2.87625 9.0925 -2.7525 8.185 -2.625 7.25 C-2.07890323 4.41029677 -1.42736197 2.47409409 0 0 Z " fill="#86A8D8" transform="translate(492,391)"/>
<path d="M0 0 C1.06528748 2.73019786 1.07998186 3.79298812 0.00390625 6.578125 C-0.47175781 7.45984375 -0.94742188 8.3415625 -1.4375 9.25 C-1.91058594 10.14203125 -2.38367188 11.0340625 -2.87109375 11.953125 C-3.24363281 12.62859375 -3.61617187 13.3040625 -4 14 C-4.99 14 -5.98 14 -7 14 C-5.43181728 8.547001 -3.96189783 4.23513217 0 0 Z " fill="#EBEDF1" transform="translate(529,481)"/>
<path d="M0 0 C2.61850518 3.49134024 3.80304871 5.73986524 5.1875 9.75 C5.53167969 10.73484375 5.87585938 11.7196875 6.23046875 12.734375 C6.61138672 13.85585938 6.61138672 13.85585938 7 15 C5.35 14.67 3.7 14.34 2 14 C2 13.01 2 12.02 2 11 C1.34 11.99 0.68 12.98 0 14 C0 9.38 0 4.76 0 0 Z " fill="#2E3447" transform="translate(546,458)"/>
<path d="M0 0 C3.63 0 7.26 0 11 0 C11 1.65 11 3.3 11 5 C8.875 5.8125 8.875 5.8125 6 6 C3.64430565 4.57113621 1.99580114 2.94938716 0 1 C0 0.67 0 0.34 0 0 Z " fill="#CFDCF1" transform="translate(477,402)"/>
<path d="M0 0 C0.66 0 1.32 0 2 0 C2.84023188 4.35332736 3.10770995 8.44442519 3.0625 12.875 C3.05347656 14.02742187 3.04445313 15.17984375 3.03515625 16.3671875 C3.02355469 17.23601563 3.01195312 18.10484375 3 19 C2.01 19 1.02 19 0 19 C0 12.73 0 6.46 0 0 Z " fill="#434855" transform="translate(482,526)"/>
<path d="M0 0 C0.33 0 0.66 0 1 0 C1.33 3.63 1.66 7.26 2 11 C2.33 11 2.66 11 3 11 C3 14.3 3 17.6 3 21 C2.01 21 1.02 21 0 21 C0 14.07 0 7.14 0 0 Z " fill="#E0E4EC" transform="translate(438,473)"/>
<path d="M0 0 C2.57146057 2.57146057 2.80117997 4.6050417 3.625 8.125 C3.88539063 9.22070312 4.14578125 10.31640625 4.4140625 11.4453125 C4.70410156 12.70988281 4.70410156 12.70988281 5 14 C4.01 14 3.02 14 2 14 C1.67 14.99 1.34 15.98 1 17 C0.1679418 11.27959989 -0.12036664 5.77759884 0 0 Z " fill="#D4D8E0" transform="translate(502,528)"/>
<path d="M0 0 C2.31 1.65 4.62 3.3 7 5 C5.75 7 5.75 7 4 9 C2.68 9 1.36 9 0 9 C0 6.03 0 3.06 0 0 Z " fill="#203053" transform="translate(492,428)"/>
<path d="M0 0 C0.33 0 0.66 0 1 0 C1.33 6.6 1.66 13.2 2 20 C2.99 20.33 3.98 20.66 5 21 C3.35 22.65 1.7 24.3 0 26 C0 17.42 0 8.84 0 0 Z " fill="#1B243F" transform="translate(1025,515)"/>
<path d="M0 0 C1.12377697 3.30435084 0.89554742 5.0506862 -0.4375 8.25 C-0.72496094 8.95640625 -1.01242187 9.6628125 -1.30859375 10.390625 C-1.53675781 10.92171875 -1.76492188 11.4528125 -2 12 C-2.99 11.67 -3.98 11.34 -5 11 C-4.74445946 9.53890937 -4.46999628 8.08111904 -4.1875 6.625 C-4.03667969 5.81289063 -3.88585937 5.00078125 -3.73046875 4.1640625 C-3 2 -3 2 0 0 Z " fill="#EBECEF" transform="translate(432,469)"/>
<path d="M0 0 C0.33 0 0.66 0 1 0 C1.02708567 1.60407328 1.04643483 3.2082785 1.0625 4.8125 C1.07410156 5.70582031 1.08570313 6.59914063 1.09765625 7.51953125 C1 10 1 10 0 13 C-2.0625 14.1875 -2.0625 14.1875 -4 15 C-3.52229477 13.06213915 -3.04278429 11.12472326 -2.5625 9.1875 C-2.29566406 8.10855469 -2.02882813 7.02960937 -1.75390625 5.91796875 C-1.23922588 3.9259157 -0.65062825 1.95188476 0 0 Z " fill="#E7E9ED" transform="translate(482,527)"/>
<path d="M0 0 C0 2.64 0 5.28 0 8 C-0.66 8 -1.32 8 -2 8 C-2.33 6.68 -2.66 5.36 -3 4 C-3.33 4.33 -3.66 4.66 -4 5 C-5.66617115 5.04063832 -7.33388095 5.042721 -9 5 C-8.01 4.67 -7.02 4.34 -6 4 C-5.67 3.01 -5.34 2.02 -5 1 C-3 0 -3 0 0 0 Z " fill="#C7CFDD" transform="translate(492,428)"/>
<path d="M0 0 C2.6855594 2.6855594 3.06049974 5.37621328 4 9 C2.68 9 1.36 9 0 9 C-0.66 7.02 -1.32 5.04 -2 3 C-1.34 3 -0.68 3 0 3 C0 2.01 0 1.02 0 0 Z " fill="#D9DCE2" transform="translate(561,486)"/>
<path d="M0 0 C2.58548628 2.58548628 2.97641847 4.29538385 3.09765625 7.91796875 C3.08605469 8.99691406 3.07445312 10.07585937 3.0625 11.1875 C3.05347656 12.27417969 3.04445313 13.36085938 3.03515625 14.48046875 C3.02355469 15.31191406 3.01195312 16.14335937 3 17 C2.67 17 2.34 17 2 17 C1.67 13.7 1.34 10.4 1 7 C0.01 7 -0.98 7 -2 7 C-1.34 4.69 -0.68 2.38 0 0 Z " fill="#D2D6DE" transform="translate(437,451)"/>
<path d="M0 0 C0.6875 1.6875 0.6875 1.6875 1 4 C-0.3125 6.75 -0.3125 6.75 -2 9 C-2.66 9 -3.32 9 -4 9 C-3.38461538 3.46153846 -3.38461538 3.46153846 -1.4375 1.125 C-0.963125 0.75375 -0.48875 0.3825 0 0 Z " fill="#E5E9EE" transform="translate(535,467)"/>
<path d="M0 0 C1.9451 2.91765 2.45276317 4.62537285 3 8 C2.01 8 1.02 8 0 8 C-1.75 5.625 -1.75 5.625 -3 3 C-2.67 2.34 -2.34 1.68 -2 1 C-1.34 1.33 -0.68 1.66 0 2 C0 1.34 0 0.68 0 0 Z " fill="#D0D4DC" transform="translate(460,487)"/>
<path d="M0 0 C1.125 1.6875 1.125 1.6875 2 4 C1.125 6.75 1.125 6.75 0 9 C-2.35953094 6.64046906 -2.49141413 5.22104383 -3 2 C-2.01 1.34 -1.02 0.68 0 0 Z " fill="#1F2634" transform="translate(899,448)"/>
<path d="M0 0 C0.66 0 1.32 0 2 0 C2 2.31 2 4.62 2 7 C0.02 7.99 0.02 7.99 -2 9 C-2.33 8.01 -2.66 7.02 -3 6 C-2.34 5.67 -1.68 5.34 -1 5 C-0.34444881 2.47266765 -0.34444881 2.47266765 0 0 Z " fill="#B7CFF4" transform="translate(488,402)"/>
<path d="M0 0 C0.66 0.33 1.32 0.66 2 1 C-0.97 3.97 -3.94 6.94 -7 10 C-7.66 9.67 -8.32 9.34 -9 9 C-6.31941902 5.42589203 -3.57410797 2.68058098 0 0 Z " fill="#5086DB" transform="translate(733,511)"/>
<path d="M0 0 C3 4 3 4 3 7 C2.34 7 1.68 7 1 7 C1 9.31 1 11.62 1 14 C0.67 14 0.34 14 0 14 C0 9.38 0 4.76 0 0 Z " fill="#424758" transform="translate(546,458)"/>
<path d="M0 0 C0 0.99 0 1.98 0 3 C-2.59688473 5.59688473 -4.10659265 6.92058601 -7.8125 7.25 C-8.534375 7.1675 -9.25625 7.085 -10 7 C-7.96153279 5.64102186 -5.91973686 4.28702633 -3.875 2.9375 C-1.21312042 1.27685736 -1.21312042 1.27685736 0 0 Z " fill="#497FCF" transform="translate(770,561)"/>
<path d="M0 0 C1.5 1.375 1.5 1.375 3 3 C3 3.66 3 4.32 3 5 C1.35 5.66 -0.3 6.32 -2 7 C-1.125 2.25 -1.125 2.25 0 0 Z " fill="#6998D6" transform="translate(492,391)"/>
<path d="M0 0 C0.99 0.99 1.98 1.98 3 3 C2.67 3.66 2.34 4.32 2 5 C1.34 4.67 0.68 4.34 0 4 C-0.66 5.65 -1.32 7.3 -2 9 C-2.33 8.34 -2.66 7.68 -3 7 C-2.06421005 4.64018187 -1.06652192 2.30368736 0 0 Z " fill="#333747" transform="translate(827,423)"/>
<path d="M0 0 C2.475 0.495 2.475 0.495 5 1 C3.69593116 3.01920337 2.36176581 5.01924973 1 7 C0.67 7 0.34 7 0 7 C0 4.69 0 2.38 0 0 Z " fill="#26304A" transform="translate(1025,534)"/>
<path d="M0 0 C0.33 0.66 0.66 1.32 1 2 C1.66 2 2.32 2 3 2 C2.67 3.65 2.34 5.3 2 7 C1.01 7 0.02 7 -1 7 C-1.33 6.34 -1.66 5.68 -2 5 C-1.0625 2.375 -1.0625 2.375 0 0 Z " fill="#D1D3DA" transform="translate(535,462)"/>
<path d="M0 0 C0 0.99 0 1.98 0 3 C-2.5 5.1875 -2.5 5.1875 -5 7 C-5.33 5.68 -5.66 4.36 -6 3 C-5.195625 2.690625 -4.39125 2.38125 -3.5625 2.0625 C-1.10919595 1.23664655 -1.10919595 1.23664655 0 0 Z " fill="#DFE8F3" transform="translate(498,434)"/>
<path d="M0 0 C0.33 0.66 0.66 1.32 1 2 C2.65 2 4.3 2 6 2 C5.01 3.485 5.01 3.485 4 5 C2.68 5 1.36 5 0 5 C0 3.35 0 1.7 0 0 Z " fill="#596D92" transform="translate(492,432)"/>
<path d="M0 0 C0.66 0 1.32 0 2 0 C2.33 2.31 2.66 4.62 3 7 C1.68 6.34 0.36 5.68 -1 5 C-0.67 3.35 -0.34 1.7 0 0 Z " fill="#7FA9DF" transform="translate(500,414)"/>
</svg>
